<svg viewBox="0 0 37 37" xmlns="http://www.w3.org/2000/svg" shape-rendering="geometricPrecision"><rect x="0" y="0" width="37" height="37" fill="#4d3695" /><rect x="13" y="4" width="1" height="1" fill="#FFF" /><rect x="15" y="4" width="1" height="1" fill="#FFF" /><rect x="16" y="4" width="1" height="1" fill="#FFF" /><rect x="17" y="4" width="1" height="1" fill="#FFF" /><rect x="19" y="4" width="1" height="1" fill="#FFF" /><rect x="20" y="4" width="1" height="1" fill="#FFF" /><rect x="21" y="4" width="1" height="1" fill="#FFF" /><rect x="22" y="4" width="1" height="1" fill="#FFF" /><rect x="23" y="4" width="1" height="1" fill="#FFF" /><rect x="12" y="5" width="1" height="1" fill="#FFF" /><rect x="13" y="5" width="1" height="1" fill="#FFF" /><rect x="17" y="5" width="1" height="1" fill="#FFF" /><rect x="20" y="5" width="1" height="1" fill="#FFF" /><rect x="21" y="5" width="1" height="1" fill="#FFF" /><rect x="24" y="5" width="1" height="1" fill="#FFF" /><rect x="13" y="6" width="1" height="1" fill="#FFF" /><rect x="16" y="6" width="1" height="1" fill="#FFF" /><rect x="18" y="6" width="1" height="1" fill="#FFF" /><rect x="19" y="6" width="1" height="1" fill="#FFF" /><rect x="21" y="6" width="1" height="1" fill="#FFF" /><rect x="23" y="6" width="1" height="1" fill="#FFF" /><rect x="24" y="6" width="1" height="1" fill="#FFF" /><rect x="13" y="7" width="1" height="1" fill="#FFF" /><rect x="15" y="7" width="1" height="1" fill="#FFF" /><rect x="18" y="7" width="1" height="1" fill="#FFF" /><rect x="19" y="7" width="1" height="1" fill="#FFF" /><rect x="22" y="7" width="1" height="1" fill="#FFF" /><rect x="23" y="7" width="1" height="1" fill="#FFF" /><rect x="15" y="8" width="1" height="1" fill="#FFF" /><rect x="19" y="8" width="1" height="1" fill="#FFF" /><rect x="24" y="8" width="1" height="1" fill="#FFF" /><rect x="12" y="9" width="1" height="1" fill="#FFF" /><rect x="13" y="9" width="1" height="1" fill="#FFF" /><rect x="15" y="9" width="1" height="1" fill="#FFF" /><rect x="22" y="9" width="1" height="1" fill="#FFF" /><rect x="23" y="9" width="1" height="1" fill="#FFF" /><rect x="24" y="9" width="1" height="1" fill="#FFF" /><rect x="12" y="10" width="1" height="1" fill="#FFF" /><rect x="14" y="10" width="1" height="1" fill="#FFF" /><rect x="16" y="10" width="1" height="1" fill="#FFF" /><rect x="18" y="10" width="1" height="1" fill="#FFF" /><rect x="20" y="10" width="1" height="1" fill="#FFF" /><rect x="22" y="10" width="1" height="1" fill="#FFF" /><rect x="24" y="10" width="1" height="1" fill="#FFF" /><rect x="12" y="11" width="1" height="1" fill="#FFF" /><rect x="14" y="11" width="1" height="1" fill="#FFF" /><rect x="20" y="11" width="1" height="1" fill="#FFF" /><rect x="21" y="11" width="1" height="1" fill="#FFF" /><rect x="22" y="11" width="1" height="1" fill="#FFF" /><rect x="23" y="11" width="1" height="1" fill="#FFF" /><rect x="8" y="12" width="1" height="1" fill="#FFF" /><rect x="9" y="12" width="1" height="1" fill="#FFF" /><rect x="10" y="12" width="1" height="1" fill="#FFF" /><rect x="11" y="12" width="1" height="1" fill="#FFF" /><rect x="13" y="12" width="1" height="1" fill="#FFF" /><rect x="14" y="12" width="1" height="1" fill="#FFF" /><rect x="19" y="12" width="1" height="1" fill="#FFF" /><rect x="22" y="12" width="1" height="1" fill="#FFF" /><rect x="23" y="12" width="1" height="1" fill="#FFF" /><rect x="24" y="12" width="1" height="1" fill="#FFF" /><rect x="26" y="12" width="1" height="1" fill="#FFF" /><rect x="27" y="12" width="1" height="1" fill="#FFF" /><rect x="31" y="12" width="1" height="1" fill="#FFF" /><rect x="4" y="13" width="1" height="1" fill="#FFF" /><rect x="6" y="13" width="1" height="1" fill="#FFF" /><rect x="8" y="13" width="1" height="1" fill="#FFF" /><rect x="9" y="13" width="1" height="1" fill="#FFF" /><rect x="14" y="13" width="1" height="1" fill="#FFF" /><rect x="15" y="13" width="1" height="1" fill="#FFF" /><rect x="21" y="13" width="1" height="1" fill="#FFF" /><rect x="23" y="13" width="1" height="1" fill="#FFF" /><rect x="24" y="13" width="1" height="1" fill="#FFF" /><rect x="26" y="13" width="1" height="1" fill="#FFF" /><rect x="28" y="13" width="1" height="1" fill="#FFF" /><rect x="30" y="13" width="1" height="1" fill="#FFF" /><rect x="31" y="13" width="1" height="1" fill="#FFF" /><rect x="32" y="13" width="1" height="1" fill="#FFF" /><rect x="7" y="14" width="1" height="1" fill="#FFF" /><rect x="8" y="14" width="1" height="1" fill="#FFF" /><rect x="9" y="14" width="1" height="1" fill="#FFF" /><rect x="10" y="14" width="1" height="1" fill="#FFF" /><rect x="11" y="14" width="1" height="1" fill="#FFF" /><rect x="12" y="14" width="1" height="1" fill="#FFF" /><rect x="14" y="14" width="1" height="1" fill="#FFF" /><rect x="18" y="14" width="1" height="1" fill="#FFF" /><rect x="19" y="14" width="1" height="1" fill="#FFF" /><rect x="20" y="14" width="1" height="1" fill="#FFF" /><rect x="21" y="14" width="1" height="1" fill="#FFF" /><rect x="25" y="14" width="1" height="1" fill="#FFF" /><rect x="28" y="14" width="1" height="1" fill="#FFF" /><rect x="29" y="14" width="1" height="1" fill="#FFF" /><rect x="32" y="14" width="1" height="1" fill="#FFF" /><rect x="4" y="15" width="1" height="1" fill="#FFF" /><rect x="5" y="15" width="1" height="1" fill="#FFF" /><rect x="6" y="15" width="1" height="1" fill="#FFF" /><rect x="8" y="15" width="1" height="1" fill="#FFF" /><rect x="9" y="15" width="1" height="1" fill="#FFF" /><rect x="11" y="15" width="1" height="1" fill="#FFF" /><rect x="13" y="15" width="1" height="1" fill="#FFF" /><rect x="17" y="15" width="1" height="1" fill="#FFF" /><rect x="18" y="15" width="1" height="1" fill="#FFF" /><rect x="19" y="15" width="1" height="1" fill="#FFF" /><rect x="20" y="15" width="1" height="1" fill="#FFF" /><rect x="21" y="15" width="1" height="1" fill="#FFF" /><rect x="25" y="15" width="1" height="1" fill="#FFF" /><rect x="27" y="15" width="1" height="1" fill="#FFF" /><rect x="29" y="15" width="1" height="1" fill="#FFF" /><rect x="31" y="15" width="1" height="1" fill="#FFF" /><rect x="32" y="15" width="1" height="1" fill="#FFF" /><rect x="5" y="16" width="1" height="1" fill="#FFF" /><rect x="6" y="16" width="1" height="1" fill="#FFF" /><rect x="7" y="16" width="1" height="1" fill="#FFF" /><rect x="10" y="16" width="1" height="1" fill="#FFF" /><rect x="16" y="16" width="1" height="1" fill="#FFF" /><rect x="18" y="16" width="1" height="1" fill="#FFF" /><rect x="20" y="16" width="1" height="1" fill="#FFF" /><rect x="23" y="16" width="1" height="1" fill="#FFF" /><rect x="27" y="16" width="1" height="1" fill="#FFF" /><rect x="29" y="16" width="1" height="1" fill="#FFF" /><rect x="32" y="16" width="1" height="1" fill="#FFF" /><rect x="8" y="17" width="1" height="1" fill="#FFF" /><rect x="9" y="17" width="1" height="1" fill="#FFF" /><rect x="11" y="17" width="1" height="1" fill="#FFF" /><rect x="12" y="17" width="1" height="1" fill="#FFF" /><rect x="13" y="17" width="1" height="1" fill="#FFF" /><rect x="16" y="17" width="1" height="1" fill="#FFF" /><rect x="19" y="17" width="1" height="1" fill="#FFF" /><rect x="20" y="17" width="1" height="1" fill="#FFF" /><rect x="21" y="17" width="1" height="1" fill="#FFF" /><rect x="26" y="17" width="1" height="1" fill="#FFF" /><rect x="28" y="17" width="1" height="1" fill="#FFF" /><rect x="30" y="17" width="1" height="1" fill="#FFF" /><rect x="32" y="17" width="1" height="1" fill="#FFF" /><rect x="7" y="18" width="1" height="1" fill="#FFF" /><rect x="8" y="18" width="1" height="1" fill="#FFF" /><rect x="10" y="18" width="1" height="1" fill="#FFF" /><rect x="11" y="18" width="1" height="1" fill="#FFF" /><rect x="14" y="18" width="1" height="1" fill="#FFF" /><rect x="21" y="18" width="1" height="1" fill="#FFF" /><rect x="24" y="18" width="1" height="1" fill="#FFF" /><rect x="28" y="18" width="1" height="1" fill="#FFF" /><rect x="32" y="18" width="1" height="1" fill="#FFF" /><rect x="4" y="19" width="1" height="1" fill="#FFF" /><rect x="6" y="19" width="1" height="1" fill="#FFF" /><rect x="8" y="19" width="1" height="1" fill="#FFF" /><rect x="9" y="19" width="1" height="1" fill="#FFF" /><rect x="11" y="19" width="1" height="1" fill="#FFF" /><rect x="15" y="19" width="1" height="1" fill="#FFF" /><rect x="20" y="19" width="1" height="1" fill="#FFF" /><rect x="22" y="19" width="1" height="1" fill="#FFF" /><rect x="25" y="19" width="1" height="1" fill="#FFF" /><rect x="27" y="19" width="1" height="1" fill="#FFF" /><rect x="29" y="19" width="1" height="1" fill="#FFF" /><rect x="31" y="19" width="1" height="1" fill="#FFF" /><rect x="32" y="19" width="1" height="1" fill="#FFF" /><rect x="5" y="20" width="1" height="1" fill="#FFF" /><rect x="6" y="20" width="1" height="1" fill="#FFF" /><rect x="7" y="20" width="1" height="1" fill="#FFF" /><rect x="9" y="20" width="1" height="1" fill="#FFF" /><rect x="10" y="20" width="1" height="1" fill="#FFF" /><rect x="11" y="20" width="1" height="1" fill="#FFF" /><rect x="16" y="20" width="1" height="1" fill="#FFF" /><rect x="17" y="20" width="1" height="1" fill="#FFF" /><rect x="18" y="20" width="1" height="1" fill="#FFF" /><rect x="21" y="20" width="1" height="1" fill="#FFF" /><rect x="23" y="20" width="1" height="1" fill="#FFF" /><rect x="25" y="20" width="1" height="1" fill="#FFF" /><rect x="27" y="20" width="1" height="1" fill="#FFF" /><rect x="4" y="21" width="1" height="1" fill="#FFF" /><rect x="5" y="21" width="1" height="1" fill="#FFF" /><rect x="7" y="21" width="1" height="1" fill="#FFF" /><rect x="8" y="21" width="1" height="1" fill="#FFF" /><rect x="12" y="21" width="1" height="1" fill="#FFF" /><rect x="14" y="21" width="1" height="1" fill="#FFF" /><rect x="15" y="21" width="1" height="1" fill="#FFF" /><rect x="17" y="21" width="1" height="1" fill="#FFF" /><rect x="18" y="21" width="1" height="1" fill="#FFF" /><rect x="20" y="21" width="1" height="1" fill="#FFF" /><rect x="21" y="21" width="1" height="1" fill="#FFF" /><rect x="22" y="21" width="1" height="1" fill="#FFF" /><rect x="26" y="21" width="1" height="1" fill="#FFF" /><rect x="27" y="21" width="1" height="1" fill="#FFF" /><rect x="28" y="21" width="1" height="1" fill="#FFF" /><rect x="29" y="21" width="1" height="1" fill="#FFF" /><rect x="30" y="21" width="1" height="1" fill="#FFF" /><rect x="32" y="21" width="1" height="1" fill="#FFF" /><rect x="6" y="22" width="1" height="1" fill="#FFF" /><rect x="7" y="22" width="1" height="1" fill="#FFF" /><rect x="10" y="22" width="1" height="1" fill="#FFF" /><rect x="12" y="22" width="1" height="1" fill="#FFF" /><rect x="16" y="22" width="1" height="1" fill="#FFF" /><rect x="17" y="22" width="1" height="1" fill="#FFF" /><rect x="18" y="22" width="1" height="1" fill="#FFF" /><rect x="19" y="22" width="1" height="1" fill="#FFF" /><rect x="27" y="22" width="1" height="1" fill="#FFF" /><rect x="28" y="22" width="1" height="1" fill="#FFF" /><rect x="29" y="22" width="1" height="1" fill="#FFF" /><rect x="30" y="22" width="1" height="1" fill="#FFF" /><rect x="32" y="22" width="1" height="1" fill="#FFF" /><rect x="8" y="23" width="1" height="1" fill="#FFF" /><rect x="13" y="23" width="1" height="1" fill="#FFF" /><rect x="14" y="23" width="1" height="1" fill="#FFF" /><rect x="17" y="23" width="1" height="1" fill="#FFF" /><rect x="18" y="23" width="1" height="1" fill="#FFF" /><rect x="21" y="23" width="1" height="1" fill="#FFF" /><rect x="27" y="23" width="1" height="1" fill="#FFF" /><rect x="29" y="23" width="1" height="1" fill="#FFF" /><rect x="31" y="23" width="1" height="1" fill="#FFF" /><rect x="4" y="24" width="1" height="1" fill="#FFF" /><rect x="5" y="24" width="1" height="1" fill="#FFF" /><rect x="8" y="24" width="1" height="1" fill="#FFF" /><rect x="9" y="24" width="1" height="1" fill="#FFF" /><rect x="10" y="24" width="1" height="1" fill="#FFF" /><rect x="13" y="24" width="1" height="1" fill="#FFF" /><rect x="14" y="24" width="1" height="1" fill="#FFF" /><rect x="15" y="24" width="1" height="1" fill="#FFF" /><rect x="16" y="24" width="1" height="1" fill="#FFF" /><rect x="17" y="24" width="1" height="1" fill="#FFF" /><rect x="18" y="24" width="1" height="1" fill="#FFF" /><rect x="20" y="24" width="1" height="1" fill="#FFF" /><rect x="21" y="24" width="1" height="1" fill="#FFF" /><rect x="23" y="24" width="1" height="1" fill="#FFF" /><rect x="24" y="24" width="1" height="1" fill="#FFF" /><rect x="25" y="24" width="1" height="1" fill="#FFF" /><rect x="26" y="24" width="1" height="1" fill="#FFF" /><rect x="27" y="24" width="1" height="1" fill="#FFF" /><rect x="28" y="24" width="1" height="1" fill="#FFF" /><rect x="31" y="24" width="1" height="1" fill="#FFF" /><rect x="12" y="25" width="1" height="1" fill="#FFF" /><rect x="15" y="25" width="1" height="1" fill="#FFF" /><rect x="18" y="25" width="1" height="1" fill="#FFF" /><rect x="24" y="25" width="1" height="1" fill="#FFF" /><rect x="28" y="25" width="1" height="1" fill="#FFF" /><rect x="30" y="25" width="1" height="1" fill="#FFF" /><rect x="31" y="25" width="1" height="1" fill="#FFF" /><rect x="32" y="25" width="1" height="1" fill="#FFF" /><rect x="12" y="26" width="1" height="1" fill="#FFF" /><rect x="13" y="26" width="1" height="1" fill="#FFF" /><rect x="14" y="26" width="1" height="1" fill="#FFF" /><rect x="15" y="26" width="1" height="1" fill="#FFF" /><rect x="19" y="26" width="1" height="1" fill="#FFF" /><rect x="21" y="26" width="1" height="1" fill="#FFF" /><rect x="23" y="26" width="1" height="1" fill="#FFF" /><rect x="24" y="26" width="1" height="1" fill="#FFF" /><rect x="26" y="26" width="1" height="1" fill="#FFF" /><rect x="28" y="26" width="1" height="1" fill="#FFF" /><rect x="32" y="26" width="1" height="1" fill="#FFF" /><rect x="12" y="27" width="1" height="1" fill="#FFF" /><rect x="14" y="27" width="1" height="1" fill="#FFF" /><rect x="15" y="27" width="1" height="1" fill="#FFF" /><rect x="16" y="27" width="1" height="1" fill="#FFF" /><rect x="17" y="27" width="1" height="1" fill="#FFF" /><rect x="18" y="27" width="1" height="1" fill="#FFF" /><rect x="20" y="27" width="1" height="1" fill="#FFF" /><rect x="21" y="27" width="1" height="1" fill="#FFF" /><rect x="23" y="27" width="1" height="1" fill="#FFF" /><rect x="24" y="27" width="1" height="1" fill="#FFF" /><rect x="28" y="27" width="1" height="1" fill="#FFF" /><rect x="29" y="27" width="1" height="1" fill="#FFF" /><rect x="12" y="28" width="1" height="1" fill="#FFF" /><rect x="13" y="28" width="1" height="1" fill="#FFF" /><rect x="16" y="28" width="1" height="1" fill="#FFF" /><rect x="19" y="28" width="1" height="1" fill="#FFF" /><rect x="22" y="28" width="1" height="1" fill="#FFF" /><rect x="23" y="28" width="1" height="1" fill="#FFF" /><rect x="24" y="28" width="1" height="1" fill="#FFF" /><rect x="25" y="28" width="1" height="1" fill="#FFF" /><rect x="26" y="28" width="1" height="1" fill="#FFF" /><rect x="27" y="28" width="1" height="1" fill="#FFF" /><rect x="28" y="28" width="1" height="1" fill="#FFF" /><rect x="14" y="29" width="1" height="1" fill="#FFF" /><rect x="15" y="29" width="1" height="1" fill="#FFF" /><rect x="16" y="29" width="1" height="1" fill="#FFF" /><rect x="17" y="29" width="1" height="1" fill="#FFF" /><rect x="18" y="29" width="1" height="1" fill="#FFF" /><rect x="20" y="29" width="1" height="1" fill="#FFF" /><rect x="21" y="29" width="1" height="1" fill="#FFF" /><rect x="27" y="29" width="1" height="1" fill="#FFF" /><rect x="30" y="29" width="1" height="1" fill="#FFF" /><rect x="31" y="29" width="1" height="1" fill="#FFF" /><rect x="13" y="30" width="1" height="1" fill="#FFF" /><rect x="15" y="30" width="1" height="1" fill="#FFF" /><rect x="17" y="30" width="1" height="1" fill="#FFF" /><rect x="18" y="30" width="1" height="1" fill="#FFF" /><rect x="21" y="30" width="1" height="1" fill="#FFF" /><rect x="23" y="30" width="1" height="1" fill="#FFF" /><rect x="24" y="30" width="1" height="1" fill="#FFF" /><rect x="25" y="30" width="1" height="1" fill="#FFF" /><rect x="31" y="30" width="1" height="1" fill="#FFF" /><rect x="32" y="30" width="1" height="1" fill="#FFF" /><rect x="14" y="31" width="1" height="1" fill="#FFF" /><rect x="15" y="31" width="1" height="1" fill="#FFF" /><rect x="16" y="31" width="1" height="1" fill="#FFF" /><rect x="18" y="31" width="1" height="1" fill="#FFF" /><rect x="20" y="31" width="1" height="1" fill="#FFF" /><rect x="21" y="31" width="1" height="1" fill="#FFF" /><rect x="22" y="31" width="1" height="1" fill="#FFF" /><rect x="23" y="31" width="1" height="1" fill="#FFF" /><rect x="24" y="31" width="1" height="1" fill="#FFF" /><rect x="25" y="31" width="1" height="1" fill="#FFF" /><rect x="26" y="31" width="1" height="1" fill="#FFF" /><rect x="27" y="31" width="1" height="1" fill="#FFF" /><rect x="29" y="31" width="1" height="1" fill="#FFF" /><rect x="31" y="31" width="1" height="1" fill="#FFF" /><rect x="32" y="31" width="1" height="1" fill="#FFF" /><rect x="15" y="32" width="1" height="1" fill="#FFF" /><rect x="17" y="32" width="1" height="1" fill="#FFF" /><rect x="18" y="32" width="1" height="1" fill="#FFF" /><rect x="24" y="32" width="1" height="1" fill="#FFF" /><rect x="25" y="32" width="1" height="1" fill="#FFF" /><rect x="28" y="32" width="1" height="1" fill="#FFF" /><rect x="31" y="32" width="1" height="1" fill="#FFF" /><rect x="4" y="4" width="7" height="7" rx="1.5" fill="#FFF" /><rect x="5" y="5" width="5" height="5" rx="1.05" fill="#4d3695" /><rect x="6" y="6" width="3" height="3" rx="0.6" fill="#FFF" /><rect x="26" y="4" width="7" height="7" rx="1.5" fill="#FFF" /><rect x="27" y="5" width="5" height="5" rx="1.05" fill="#4d3695" /><rect x="28" y="6" width="3" height="3" rx="0.6" fill="#FFF" /><rect x="4" y="26" width="7" height="7" rx="1.5" fill="#FFF" /><rect x="5" y="27" width="5" height="5" rx="1.05" fill="#4d3695" /><rect x="6" y="28" width="3" height="3" rx="0.6" fill="#FFF" /></svg>